<?xml version="1.0" encoding="UTF-8"?>
<svg xmlns="http://www.w3.org/2000/svg" xmlns:xlink="http://www.w3.org/1999/xlink" width="500px" height="99px" viewBox="0 0 499 99" version="1.1">
<defs>
<clipPath id="clip1">
  <path d="M 67 17.21875 L 77 17.21875 L 77 68 L 67 68 Z M 67 17.21875 "/>
</clipPath>
<clipPath id="clip2">
  <path d="M 118 17.21875 L 126.625 17.21875 L 126.625 26 L 118 26 Z M 118 17.21875 "/>
</clipPath>
<clipPath id="clip3">
  <path d="M 30.113281 32 L 65 32 L 65 83.21875 L 30.113281 83.21875 Z M 30.113281 32 "/>
</clipPath>
<clipPath id="clip4">
  <path d="M 118 32 L 126.625 32 L 126.625 67 L 118 67 Z M 118 32 "/>
</clipPath>
</defs>
<g id="surface1">
<path style=" stroke:none;fill-rule:nonzero;fill:rgb(100%,100%,100%);fill-opacity:1;" d="M 203.09375 61.695312 L 194.613281 61.695312 L 194.613281 36.652344 L 203.265625 36.652344 C 205.75 36.652344 207.882812 37.152344 209.667969 38.15625 C 211.460938 39.152344 212.835938 40.582031 213.796875 42.449219 C 214.761719 44.316406 215.242188 46.550781 215.242188 49.148438 C 215.242188 51.757812 214.757812 54 213.785156 55.875 C 212.824219 57.75 211.4375 59.1875 209.621094 60.191406 C 207.8125 61.195312 205.636719 61.695312 203.09375 61.695312 Z M 199.148438 57.769531 L 202.875 57.769531 C 204.617188 57.769531 206.070312 57.453125 207.238281 56.816406 C 208.402344 56.171875 209.277344 55.214844 209.863281 53.941406 C 210.449219 52.664062 210.746094 51.066406 210.746094 49.148438 C 210.746094 47.234375 210.449219 45.644531 209.863281 44.378906 C 209.277344 43.109375 208.410156 42.160156 207.261719 41.53125 C 206.121094 40.894531 204.703125 40.578125 203.007812 40.578125 L 199.148438 40.578125 Z M 241.914062 49.175781 C 241.914062 51.871094 241.410156 54.183594 240.398438 56.105469 C 239.394531 58.023438 238.027344 59.492188 236.289062 60.507812 C 234.5625 61.527344 232.605469 62.039062 230.414062 62.039062 C 228.222656 62.039062 226.257812 61.527344 224.523438 60.507812 C 222.792969 59.480469 221.425781 58.011719 220.417969 56.09375 C 219.414062 54.171875 218.914062 51.863281 218.914062 49.175781 C 218.914062 46.476562 219.414062 44.167969 220.417969 42.253906 C 221.425781 40.328125 222.792969 38.855469 224.523438 37.839844 C 226.257812 36.820312 228.222656 36.308594 230.414062 36.308594 C 232.605469 36.308594 234.5625 36.820312 236.289062 37.839844 C 238.027344 38.855469 239.394531 40.328125 240.398438 42.253906 C 241.410156 44.167969 241.914062 46.476562 241.914062 49.175781 Z M 237.355469 49.175781 C 237.355469 47.273438 237.054688 45.671875 236.464844 44.367188 C 235.875 43.054688 235.058594 42.066406 234.019531 41.398438 C 232.976562 40.71875 231.773438 40.382812 230.414062 40.382812 C 229.050781 40.382812 227.851562 40.71875 226.808594 41.398438 C 225.765625 42.066406 224.945312 43.054688 224.351562 44.367188 C 223.765625 45.671875 223.472656 47.273438 223.472656 49.175781 C 223.472656 51.074219 223.765625 52.679688 224.351562 53.992188 C 224.945312 55.296875 225.765625 56.285156 226.808594 56.964844 C 227.851562 57.632812 229.050781 57.964844 230.414062 57.964844 C 231.773438 57.964844 232.976562 57.632812 234.019531 56.964844 C 235.058594 56.285156 235.875 55.296875 236.464844 53.992188 C 237.054688 52.679688 237.355469 51.074219 237.355469 49.175781 Z M 267.621094 45.101562 L 263.050781 45.101562 C 262.921875 44.351562 262.679688 43.6875 262.332031 43.109375 C 261.980469 42.523438 261.542969 42.023438 261.023438 41.617188 C 260.503906 41.210938 259.90625 40.902344 259.238281 40.699219 C 258.578125 40.488281 257.867188 40.382812 257.101562 40.382812 C 255.742188 40.382812 254.535156 40.722656 253.484375 41.410156 C 252.433594 42.085938 251.609375 43.082031 251.015625 44.394531 C 250.417969 45.695312 250.121094 47.289062 250.121094 49.175781 C 250.121094 51.089844 250.417969 52.703125 251.015625 54.015625 C 251.617188 55.320312 252.441406 56.308594 253.484375 56.976562 C 254.535156 57.636719 255.734375 57.964844 257.089844 57.964844 C 257.839844 57.964844 258.539062 57.867188 259.191406 57.671875 C 259.851562 57.46875 260.441406 57.171875 260.960938 56.78125 C 261.492188 56.386719 261.9375 55.90625 262.292969 55.335938 C 262.660156 54.765625 262.914062 54.113281 263.050781 53.378906 L 267.621094 53.40625 C 267.449219 54.59375 267.082031 55.710938 266.511719 56.753906 C 265.949219 57.800781 265.210938 58.71875 264.296875 59.519531 C 263.386719 60.308594 262.320312 60.929688 261.097656 61.378906 C 259.875 61.816406 258.519531 62.039062 257.027344 62.039062 C 254.828125 62.039062 252.863281 61.527344 251.136719 60.507812 C 249.410156 59.492188 248.050781 58.019531 247.054688 56.09375 C 246.0625 54.171875 245.5625 51.863281 245.5625 49.175781 C 245.5625 46.476562 246.0625 44.167969 247.066406 42.253906 C 248.070312 40.328125 249.433594 38.855469 251.160156 37.839844 C 252.886719 36.820312 254.84375 36.308594 257.027344 36.308594 C 258.421875 36.308594 259.714844 36.503906 260.914062 36.898438 C 262.109375 37.289062 263.179688 37.863281 264.113281 38.621094 C 265.050781 39.371094 265.820312 40.292969 266.425781 41.382812 C 267.035156 42.46875 267.433594 43.707031 267.621094 45.101562 Z M 287.550781 36.652344 L 292.085938 36.652344 L 292.085938 53.011719 C 292.085938 54.808594 291.660156 56.382812 290.8125 57.746094 C 289.976562 59.105469 288.792969 60.171875 287.269531 60.9375 C 285.746094 61.695312 283.96875 62.074219 281.929688 62.074219 C 279.882812 62.074219 278.101562 61.695312 276.578125 60.9375 C 275.054688 60.171875 273.871094 59.105469 273.035156 57.746094 C 272.195312 56.382812 271.773438 54.808594 271.773438 53.011719 L 271.773438 36.652344 L 276.308594 36.652344 L 276.308594 52.632812 C 276.308594 53.679688 276.535156 54.605469 276.992188 55.421875 C 277.457031 56.238281 278.109375 56.878906 278.949219 57.34375 C 279.785156 57.800781 280.78125 58.027344 281.929688 58.027344 C 283.078125 58.027344 284.074219 57.800781 284.910156 57.34375 C 285.757812 56.878906 286.410156 56.238281 286.867188 55.421875 C 287.324219 54.605469 287.550781 53.679688 287.550781 52.632812 Z M 297.015625 36.652344 L 302.5625 36.652344 L 309.992188 54.800781 L 310.285156 54.800781 L 317.714844 36.652344 L 323.261719 36.652344 L 323.261719 61.695312 L 318.914062 61.695312 L 318.914062 44.492188 L 318.679688 44.492188 L 311.765625 61.621094 L 308.515625 61.621094 L 301.597656 44.453125 L 301.363281 44.453125 L 301.363281 61.695312 L 297.015625 61.695312 Z M 328.203125 61.695312 L 328.203125 36.652344 L 344.480469 36.652344 L 344.480469 40.457031 L 332.734375 40.457031 L 332.734375 47.253906 L 343.636719 47.253906 L 343.636719 51.058594 L 332.734375 51.058594 L 332.734375 57.894531 L 344.578125 57.894531 L 344.578125 61.695312 Z M 369.671875 36.652344 L 369.671875 61.695312 L 365.640625 61.695312 L 353.847656 44.636719 L 353.640625 44.636719 L 353.640625 61.695312 L 349.105469 61.695312 L 349.105469 36.652344 L 353.160156 36.652344 L 364.941406 53.722656 L 365.164062 53.722656 L 365.164062 36.652344 Z M 373.511719 40.457031 L 373.511719 36.652344 L 393.480469 36.652344 L 393.480469 40.457031 L 385.746094 40.457031 L 385.746094 61.695312 L 381.25 61.695312 L 381.25 40.457031 Z M 397.519531 61.695312 L 392.679688 61.695312 L 401.492188 36.652344 L 407.089844 36.652344 L 415.914062 61.695312 L 411.074219 61.695312 L 404.386719 41.789062 L 404.191406 41.789062 Z M 397.679688 51.875 L 410.878906 51.875 L 410.878906 55.519531 L 397.679688 55.519531 Z M 415.085938 40.457031 L 415.085938 36.652344 L 435.054688 36.652344 L 435.054688 40.457031 L 427.316406 40.457031 L 427.316406 61.695312 L 422.820312 61.695312 L 422.820312 40.457031 Z M 443.4375 36.652344 L 443.4375 61.695312 L 438.902344 61.695312 L 438.902344 36.652344 Z M 470.710938 49.175781 C 470.710938 51.871094 470.207031 54.183594 469.195312 56.105469 C 468.195312 58.023438 466.824219 59.492188 465.089844 60.507812 C 463.363281 61.527344 461.402344 62.039062 459.210938 62.039062 C 457.019531 62.039062 455.054688 61.527344 453.320312 60.507812 C 451.59375 59.480469 450.222656 58.011719 449.214844 56.09375 C 448.210938 54.171875 447.710938 51.863281 447.710938 49.175781 C 447.710938 46.476562 448.210938 44.167969 449.214844 42.253906 C 450.222656 40.328125 451.59375 38.855469 453.320312 37.839844 C 455.054688 36.820312 457.019531 36.308594 459.210938 36.308594 C 461.402344 36.308594 463.363281 36.820312 465.089844 37.839844 C 466.824219 38.855469 468.195312 40.328125 469.195312 42.253906 C 470.207031 44.167969 470.710938 46.476562 470.710938 49.175781 Z M 466.152344 49.175781 C 466.152344 47.273438 465.855469 45.671875 465.261719 44.367188 C 464.671875 43.054688 463.859375 42.066406 462.816406 41.398438 C 461.773438 40.71875 460.570312 40.382812 459.210938 40.382812 C 457.851562 40.382812 456.648438 40.71875 455.605469 41.398438 C 454.5625 42.066406 453.746094 43.054688 453.148438 44.367188 C 452.5625 45.671875 452.269531 47.273438 452.269531 49.175781 C 452.269531 51.074219 452.5625 52.679688 453.148438 53.992188 C 453.746094 55.296875 454.5625 56.285156 455.605469 56.964844 C 456.648438 57.632812 457.851562 57.964844 459.210938 57.964844 C 460.570312 57.964844 461.773438 57.632812 462.816406 56.964844 C 463.859375 56.285156 464.671875 55.296875 465.261719 53.992188 C 465.855469 52.679688 466.152344 51.074219 466.152344 49.175781 Z M 495.5625 36.652344 L 495.5625 61.695312 L 491.53125 61.695312 L 479.738281 44.636719 L 479.53125 44.636719 L 479.53125 61.695312 L 474.996094 61.695312 L 474.996094 36.652344 L 479.054688 36.652344 L 490.835938 53.722656 L 491.054688 53.722656 L 491.054688 36.652344 Z M 495.5625 36.652344 "/>
<path style=" stroke:none;fill-rule:nonzero;fill:rgb(11.764706%,27.058825%,97.647059%);fill-opacity:1;" d="M 11.472656 0 L 147.691406 0 C 154.027344 0 159.164062 5.140625 159.164062 11.476562 L 159.164062 87.523438 C 159.164062 93.859375 154.027344 99 147.691406 99 L 11.472656 99 C 5.136719 99 0 93.859375 0 87.523438 L 0 11.476562 C 0 5.140625 5.136719 0 11.472656 0 Z M 11.472656 0 "/>
<g clip-path="url(#clip1)" clip-rule="nonzero">
<path style=" stroke:none;fill-rule:nonzero;fill:rgb(100%,100%,100%);fill-opacity:1;" d="M 73.828125 17.226562 L 69.722656 17.226562 C 68.484375 17.226562 67.484375 18.230469 67.484375 19.464844 L 67.484375 64.765625 C 67.484375 66 68.484375 67.003906 69.722656 67.003906 L 73.828125 67.003906 C 75.0625 67.003906 76.066406 66 76.066406 64.765625 L 76.066406 19.464844 C 76.066406 18.230469 75.0625 17.226562 73.828125 17.226562 Z M 73.828125 17.226562 "/>
</g>
<g clip-path="url(#clip2)" clip-rule="nonzero">
<path style=" stroke:none;fill-rule:nonzero;fill:rgb(100%,100%,100%);fill-opacity:1;" d="M 126.625 23.363281 C 126.625 23.90625 126.410156 24.429688 126.023438 24.816406 C 125.636719 25.199219 125.117188 25.417969 124.570312 25.417969 L 120.121094 25.417969 C 119.578125 25.417969 119.054688 25.199219 118.671875 24.816406 C 118.285156 24.429688 118.070312 23.90625 118.070312 23.363281 L 118.070312 19.273438 C 118.070312 18.726562 118.285156 18.203125 118.671875 17.820312 C 119.054688 17.433594 119.578125 17.21875 120.121094 17.21875 L 124.570312 17.21875 C 125.117188 17.21875 125.636719 17.433594 126.023438 17.820312 C 126.410156 18.203125 126.625 18.726562 126.625 19.273438 Z M 126.625 23.363281 "/>
</g>
<g clip-path="url(#clip3)" clip-rule="nonzero">
<path style=" stroke:none;fill-rule:nonzero;fill:rgb(100%,100%,100%);fill-opacity:1;" d="M 38.703125 64.609375 C 38.703125 65.160156 38.703125 70.203125 38.703125 79.738281 C 38.703125 80.972656 38.621094 81.726562 38.453125 82 C 38.171875 82.449219 37.769531 82.804688 37.289062 83.027344 C 37 83.175781 36.492188 83.234375 35.773438 83.210938 C 35.425781 83.195312 34.542969 83.195312 33.125 83.210938 C 32.234375 83.222656 31.628906 83.128906 31.304688 82.933594 C 31.015625 82.757812 30.765625 82.53125 30.5625 82.261719 C 30.363281 81.988281 30.21875 81.679688 30.140625 81.351562 C 30.121094 81.292969 30.113281 81.230469 30.113281 81.167969 C 30.097656 76.324219 30.105469 65.816406 30.132812 49.644531 C 30.152344 37.476562 42.539062 29.09375 53.828125 33.777344 C 56.054688 34.695312 58.0625 36.070312 59.722656 37.8125 C 61.378906 39.558594 62.65625 41.632812 63.460938 43.898438 C 64.269531 46.167969 64.589844 48.582031 64.402344 50.980469 C 64.21875 53.382812 63.53125 55.71875 62.382812 57.835938 C 58.164062 65.644531 48.625 68.910156 40.5 65.425781 C 39.910156 65.179688 39.339844 64.886719 38.796875 64.546875 C 38.789062 64.542969 38.777344 64.539062 38.765625 64.539062 C 38.753906 64.542969 38.742188 64.542969 38.730469 64.550781 C 38.722656 64.558594 38.714844 64.566406 38.710938 64.578125 C 38.703125 64.585938 38.703125 64.597656 38.703125 64.609375 Z M 38.703125 64.609375 "/>
</g>
<g clip-path="url(#clip4)" clip-rule="nonzero">
<path style=" stroke:none;fill-rule:nonzero;fill:rgb(100%,100%,100%);fill-opacity:1;" d="M 124.402344 32.492188 L 120.273438 32.492188 C 119.050781 32.492188 118.058594 33.480469 118.058594 34.703125 L 118.058594 64.789062 C 118.058594 66.007812 119.050781 67 120.273438 67 L 124.402344 67 C 125.621094 67 126.613281 66.007812 126.613281 64.789062 L 126.613281 34.703125 C 126.613281 33.480469 125.621094 32.492188 124.402344 32.492188 Z M 124.402344 32.492188 "/>
</g>
<path style=" stroke:none;fill-rule:nonzero;fill:rgb(100%,100%,100%);fill-opacity:1;" d="M 105.121094 64.78125 C 104.652344 65.019531 104.253906 65.222656 103.929688 65.375 C 92.648438 70.6875 79.417969 62.382812 79.488281 49.816406 C 79.535156 40.878906 86.21875 33.609375 95.085938 32.734375 C 103.949219 31.863281 111.828125 38.058594 113.527344 46.710938 C 113.730469 47.734375 113.824219 49.128906 113.816406 50.890625 C 113.789062 58.035156 113.789062 62.574219 113.816406 64.511719 C 113.839844 66.222656 112.722656 67.070312 111.101562 67.023438 C 110.585938 67.007812 109.480469 67.007812 107.785156 67.023438 C 106.253906 67.035156 105.402344 66.308594 105.226562 64.847656 C 105.230469 64.832031 105.226562 64.820312 105.222656 64.808594 C 105.21875 64.796875 105.207031 64.785156 105.195312 64.777344 C 105.183594 64.769531 105.171875 64.765625 105.160156 64.769531 C 105.144531 64.769531 105.132812 64.773438 105.121094 64.78125 Z M 105.121094 64.78125 "/>
<path style=" stroke:none;fill-rule:nonzero;fill:rgb(11.764706%,27.058825%,97.647059%);fill-opacity:1;" d="M 47.652344 58.679688 C 52.589844 58.679688 56.589844 54.675781 56.589844 49.738281 C 56.589844 44.800781 52.589844 40.796875 47.652344 40.796875 C 42.71875 40.796875 38.71875 44.800781 38.71875 49.738281 C 38.71875 54.675781 42.71875 58.679688 47.652344 58.679688 Z M 47.652344 58.679688 "/>
<path style=" stroke:none;fill-rule:nonzero;fill:rgb(11.764706%,27.058825%,97.647059%);fill-opacity:1;" d="M 104.984375 51.800781 C 106.121094 46.996094 103.144531 42.179688 98.339844 41.046875 C 93.539062 39.910156 88.722656 42.886719 87.589844 47.695312 C 86.457031 52.5 89.433594 57.316406 94.234375 58.449219 C 99.039062 59.585938 103.851562 56.609375 104.984375 51.800781 Z M 104.984375 51.800781 "/>
</g>
</svg>
