<svg width="348" height="69" viewBox="0 0 348 69" fill="none" xmlns="http://www.w3.org/2000/svg">
<path d="M141.636 43H135.722V25.5455H141.756C143.489 25.5455 144.977 25.8949 146.222 26.5938C147.472 27.2869 148.432 28.2841 149.102 29.5852C149.773 30.8864 150.108 32.4432 150.108 34.2557C150.108 36.0739 149.77 37.6364 149.094 38.9432C148.423 40.25 147.455 41.2528 146.188 41.9517C144.926 42.6506 143.409 43 141.636 43ZM138.884 40.2642H141.483C142.699 40.2642 143.713 40.0426 144.526 39.5994C145.338 39.1506 145.949 38.483 146.358 37.5966C146.767 36.7045 146.972 35.5909 146.972 34.2557C146.972 32.9205 146.767 31.8125 146.358 30.9318C145.949 30.0455 145.344 29.3835 144.543 28.946C143.747 28.5028 142.759 28.2812 141.577 28.2812H138.884V40.2642ZM168.709 34.2727C168.709 36.1534 168.357 37.7642 167.652 39.1051C166.953 40.4403 165.999 41.4631 164.788 42.1733C163.584 42.8835 162.217 43.2386 160.689 43.2386C159.161 43.2386 157.791 42.8835 156.581 42.1733C155.376 41.4574 154.422 40.4318 153.717 39.0966C153.018 37.7557 152.669 36.1477 152.669 34.2727C152.669 32.392 153.018 30.7841 153.717 29.4489C154.422 28.108 155.376 27.0824 156.581 26.3722C157.791 25.6619 159.161 25.3068 160.689 25.3068C162.217 25.3068 163.584 25.6619 164.788 26.3722C165.999 27.0824 166.953 28.108 167.652 29.4489C168.357 30.7841 168.709 32.392 168.709 34.2727ZM165.53 34.2727C165.53 32.9489 165.322 31.8324 164.908 30.9233C164.499 30.0085 163.93 29.3182 163.203 28.8523C162.476 28.3807 161.638 28.1449 160.689 28.1449C159.74 28.1449 158.902 28.3807 158.175 28.8523C157.447 29.3182 156.876 30.0085 156.462 30.9233C156.053 31.8324 155.848 32.9489 155.848 34.2727C155.848 35.5966 156.053 36.7159 156.462 37.6307C156.876 38.5398 157.447 39.2301 158.175 39.7017C158.902 40.1676 159.74 40.4006 160.689 40.4006C161.638 40.4006 162.476 40.1676 163.203 39.7017C163.93 39.2301 164.499 38.5398 164.908 37.6307C165.322 36.7159 165.53 35.5966 165.53 34.2727ZM186.638 31.4347H183.451C183.36 30.9119 183.192 30.4489 182.948 30.0455C182.704 29.6364 182.4 29.2898 182.036 29.0057C181.673 28.7216 181.258 28.5085 180.792 28.3665C180.332 28.2188 179.835 28.1449 179.3 28.1449C178.352 28.1449 177.511 28.3835 176.778 28.8608C176.045 29.3324 175.471 30.0256 175.056 30.9403C174.641 31.8494 174.434 32.9602 174.434 34.2727C174.434 35.608 174.641 36.733 175.056 37.6477C175.477 38.5568 176.05 39.2443 176.778 39.7102C177.511 40.1705 178.349 40.4006 179.292 40.4006C179.815 40.4006 180.303 40.3324 180.758 40.196C181.218 40.054 181.63 39.8466 181.994 39.5739C182.363 39.3011 182.673 38.9659 182.923 38.5682C183.178 38.1705 183.354 37.7159 183.451 37.2045L186.638 37.2216C186.519 38.0511 186.261 38.8295 185.863 39.5568C185.471 40.2841 184.957 40.9261 184.32 41.483C183.684 42.0341 182.94 42.4659 182.087 42.7784C181.235 43.0852 180.289 43.2386 179.249 43.2386C177.715 43.2386 176.346 42.8835 175.141 42.1733C173.937 41.4631 172.988 40.4375 172.295 39.0966C171.602 37.7557 171.255 36.1477 171.255 34.2727C171.255 32.392 171.604 30.7841 172.303 29.4489C173.002 28.108 173.954 27.0824 175.158 26.3722C176.363 25.6619 177.727 25.3068 179.249 25.3068C180.221 25.3068 181.124 25.4432 181.96 25.7159C182.795 25.9886 183.539 26.3892 184.192 26.9176C184.846 27.4403 185.383 28.0824 185.803 28.8438C186.229 29.5994 186.508 30.4631 186.638 31.4347ZM200.537 25.5455H203.699V36.9489C203.699 38.1989 203.403 39.2983 202.812 40.2472C202.227 41.196 201.403 41.9375 200.341 42.4716C199.278 43 198.037 43.2642 196.616 43.2642C195.19 43.2642 193.946 43 192.884 42.4716C191.821 41.9375 190.997 41.196 190.412 40.2472C189.827 39.2983 189.534 38.1989 189.534 36.9489V25.5455H192.696V36.6847C192.696 37.4119 192.855 38.0597 193.173 38.6278C193.497 39.196 193.952 39.642 194.537 39.9659C195.122 40.2841 195.815 40.4432 196.616 40.4432C197.418 40.4432 198.111 40.2841 198.696 39.9659C199.287 39.642 199.741 39.196 200.06 38.6278C200.378 38.0597 200.537 37.4119 200.537 36.6847V25.5455ZM207.136 25.5455H211.005L216.187 38.1932H216.391L221.573 25.5455H225.442V43H222.408V31.0085H222.246L217.423 42.9489H215.156L210.332 30.983H210.17V43H207.136V25.5455ZM228.886 43V25.5455H240.238V28.196H232.048V32.9347H239.65V35.5852H232.048V40.3494H240.306V43H228.886ZM257.808 25.5455V43H254.995L246.771 31.1108H246.626V43H243.464V25.5455H246.293L254.509 37.4432H254.663V25.5455H257.808ZM260.486 28.196V25.5455H274.412V28.196H269.017V43H265.881V28.196H260.486ZM277.229 43H273.854L279.999 25.5455H283.902L290.055 43H286.68L282.018 29.125H281.882L277.229 43ZM277.339 36.1562H286.544V38.696H277.339V36.1562ZM289.478 28.196V25.5455H303.404V28.196H298.009V43H294.873V28.196H289.478ZM309.251 25.5455V43H306.089V25.5455H309.251ZM328.271 34.2727C328.271 36.1534 327.919 37.7642 327.214 39.1051C326.516 40.4403 325.561 41.4631 324.351 42.1733C323.146 42.8835 321.78 43.2386 320.251 43.2386C318.723 43.2386 317.354 42.8835 316.143 42.1733C314.939 41.4574 313.984 40.4318 313.28 39.0966C312.581 37.7557 312.232 36.1477 312.232 34.2727C312.232 32.392 312.581 30.7841 313.28 29.4489C313.984 28.108 314.939 27.0824 316.143 26.3722C317.354 25.6619 318.723 25.3068 320.251 25.3068C321.78 25.3068 323.146 25.6619 324.351 26.3722C325.561 27.0824 326.516 28.108 327.214 29.4489C327.919 30.7841 328.271 32.392 328.271 34.2727ZM325.092 34.2727C325.092 32.9489 324.885 31.8324 324.47 30.9233C324.061 30.0085 323.493 29.3182 322.766 28.8523C322.038 28.3807 321.2 28.1449 320.251 28.1449C319.303 28.1449 318.464 28.3807 317.737 28.8523C317.01 29.3182 316.439 30.0085 316.024 30.9233C315.615 31.8324 315.411 32.9489 315.411 34.2727C315.411 35.5966 315.615 36.7159 316.024 37.6307C316.439 38.5398 317.01 39.2301 317.737 39.7017C318.464 40.1676 319.303 40.4006 320.251 40.4006C321.2 40.4006 322.038 40.1676 322.766 39.7017C323.493 39.2301 324.061 38.5398 324.47 37.6307C324.885 36.7159 325.092 35.5966 325.092 34.2727ZM345.604 25.5455V43H342.792L334.567 31.1108H334.423V43H331.261V25.5455H334.09L342.306 37.4432H342.46V25.5455H345.604Z" fill="black"/>
<path d="M103 0H8C3.58172 0 0 3.58172 0 8V61C0 65.4183 3.58172 69 8 69H103C107.418 69 111 65.4183 111 61V8C111 3.58172 107.418 0 103 0Z" fill="#1E45F9"/>
<mask id="mask0_4196_14320" style="mask-type:luminance" maskUnits="userSpaceOnUse" x="21" y="12" width="68" height="46">
<path d="M88.3077 12H21V58H88.3077V12Z" fill="white"/>
</mask>
<g mask="url(#mask0_4196_14320)">
<path d="M51.4877 12.0072H48.623C47.7616 12.0072 47.0632 12.7055 47.0632 13.567V45.1389C47.0632 46.0004 47.7616 46.6987 48.623 46.6987H51.4877C52.3492 46.6987 53.0476 46.0004 53.0476 45.1389V13.567C53.0476 12.7055 52.3492 12.0072 51.4877 12.0072Z" fill="white"/>
<path d="M88.3077 16.2827C88.3077 16.6626 88.1568 17.0269 87.8882 17.2956C87.6196 17.5642 87.2553 17.7151 86.8754 17.7151H83.7729C83.393 17.7151 83.0287 17.5642 82.7601 17.2956C82.4915 17.0269 82.3406 16.6626 82.3406 16.2827V13.4324C82.3406 13.0525 82.4915 12.6881 82.7601 12.4195C83.0287 12.1509 83.393 12 83.7729 12H86.8754C87.2553 12 87.6196 12.1509 87.8882 12.4195C88.1568 12.6881 88.3077 13.0525 88.3077 13.4324V16.2827Z" fill="white"/>
<path d="M26.9915 45.0315C26.9915 45.4135 26.9915 48.9284 26.9915 55.5765C26.9915 56.4359 26.9338 56.9611 26.8182 57.1521C26.6222 57.4641 26.3402 57.7128 26.0061 57.8682C25.8027 57.9699 25.4503 58.0115 24.949 57.9943C24.7065 57.9857 24.0905 57.9857 23.1013 57.9943C22.4811 58.0029 22.0571 57.9384 21.8322 57.8009C21.6304 57.6807 21.4545 57.5215 21.3149 57.3327C21.1752 57.1438 21.0745 56.929 21.0186 56.7009C21.0072 56.6584 21.0014 56.6145 21.0014 56.5705C20.9909 53.195 20.9952 45.8718 21.0143 34.6011C21.0287 26.1201 29.6672 20.2776 37.5408 23.5419C39.0923 24.1814 40.492 25.14 41.6491 26.3554C42.8062 27.5709 43.6949 29.016 44.2574 30.597C44.8199 32.1781 45.0438 33.8597 44.9144 35.5328C44.7851 37.206 44.3054 38.8332 43.5066 40.309C40.5645 45.752 33.9098 48.0294 28.2434 45.6001C27.8319 45.4293 27.4352 45.2247 27.0574 44.9885C27.0504 44.9846 27.0423 44.9826 27.0342 44.9829C27.0261 44.9832 27.0183 44.9856 27.0115 44.9901C27.0047 44.9945 26.9993 45.0007 26.9957 45.008C26.9922 45.0153 26.9908 45.0234 26.9915 45.0315Z" fill="white"/>
<path d="M86.7564 22.6452H83.8774C83.0254 22.6452 82.3347 23.3359 82.3347 24.1879V45.1547C82.3347 46.0066 83.0254 46.6973 83.8774 46.6973H86.7564C87.6084 46.6973 88.299 46.0066 88.299 45.1547V24.1879C88.299 23.3359 87.6084 22.6452 86.7564 22.6452Z" fill="white"/>
<path d="M73.311 45.1504C72.9844 45.318 72.7065 45.4569 72.4788 45.5643C64.6123 49.2684 55.3851 43.4788 55.4338 34.72C55.4667 28.4907 60.1276 23.4245 66.3111 22.8157C72.4945 22.207 77.989 26.5255 79.1736 32.5557C79.314 33.269 79.3813 34.2406 79.3756 35.4705C79.3555 40.4484 79.3555 43.6125 79.3756 44.9627C79.3913 46.1559 78.6121 46.746 77.4806 46.7131C77.1225 46.7026 76.3519 46.7026 75.1687 46.7131C74.1021 46.7217 73.5077 46.216 73.3855 45.1962C73.387 45.187 73.3857 45.1775 73.3818 45.1689C73.3779 45.1604 73.3716 45.1532 73.3636 45.1483C73.3556 45.1434 73.3463 45.141 73.337 45.1413C73.3276 45.1417 73.3186 45.1449 73.311 45.1504Z" fill="white"/>
<path d="M33.2339 40.8977C36.6758 40.8977 39.466 38.1075 39.466 34.6655C39.466 31.2236 36.6758 28.4334 33.2339 28.4334C29.7919 28.4334 27.0017 31.2236 27.0017 34.6655C27.0017 38.1075 29.7919 40.8977 33.2339 40.8977Z" fill="#1E45F9"/>
<path d="M73.2165 36.1046C74.0072 32.7547 71.9325 29.3981 68.5826 28.6074C65.2327 27.8168 61.8761 29.8915 61.0855 33.2414C60.2949 36.5913 62.3695 39.9478 65.7194 40.7385C69.0693 41.5291 72.4259 39.4544 73.2165 36.1046Z" fill="#1E45F9"/>
</g>
</svg>
